:SAMPLES-PER-SECOND 30
:FULLY-SPECIFIED
:DEGREES
243
root  2.5657 39.3019 -3.27398 -2.74447 -35.5613 1.38134
RightUpLeg  -9.90887 -25.7929 -1.63995
RightLeg  29.4174 3.24914 -8.79862
RightFoot  -11.0817 -0.0228396 2.92032
RightToes  1.74624e-010 -3.18055e-015 -2.98177e-016
Spine  2.26616 -0.644131 0.974204
Spine1  12.3137 0.136482 -2.52235
HEad  2.34647 15.0792 -12.9021
LeftShoulder1  -3.88251e-019 9.70628e-020 -3.87848e-018
LeftArm  -23.5305 50.6662 -69.9763
LeftForeArm  0.514847 -16.8783 -2.8588
LeftHand  -1.17252 -4.81753 14.0601
RightShoulder  7.2712 10.2908 34.7553
RightArm  5.85721 -46.5134 20.6558
RightForeArm  0.417438 21.0017 -11.2318
RightHand  -0.888929 2.38899 -13.0941
LeftUpLeg  -9.37937 14.732 -9.95846
LeftLeg  18.4146 13.9369 10.9571
LeftFoot  -9.24119 -0.197024 5.1063
LeftToes  7.37594e-011 2.64622e-011 -6.25182e-011
244
root  2.68407 39.3342 -3.29377 -2.80299 -38.2273 1.67005
RightUpLeg  -8.21224 -27.3981 -2.17847
RightLeg  28.7484 1.32927 -9.74064
RightFoot  -11.7769 0.00107574 2.61533
RightToes  1.74624e-010 -3.18055e-015 -2.98177e-016
Spine  1.85006 -0.314737 2.12571
Spine1  11.8473 0.898522 -3.9175
HEad  2.51871 15.3109 -13.1447
LeftShoulder1  -3.88251e-019 9.70628e-020 -3.87848e-018
LeftArm  -22.9075 51.1257 -70.2226
LeftForeArm  0.484877 -17.6191 -2.77942
LeftHand  -1.1772 -4.70697 14.2719
RightShoulder  7.30007 10.3044 34.8736
RightArm  5.92506 -46.8146 20.4405
RightForeArm  1.43361 20.5124 -10.9182
RightHand  -0.925134 2.6235 -13.2384
LeftUpLeg  -9.26813 16.1831 -10.1821
LeftLeg  17.8122 15.1846 10.9254
LeftFoot  -9.04917 -0.204622 5.10315
LeftToes  7.37594e-011 2.64622e-011 -6.25182e-011
245
root  2.78285 39.4156 -3.31432 -2.90794 -41.0835 1.76403
RightUpLeg  -6.03244 -28.8197 -2.71923
RightLeg  26.7891 -0.42439 -10.0272
RightFoot  -12.6224 0.0255788 2.16051
RightToes  1.74624e-010 -3.18055e-015 -2.98177e-016
Spine  1.48995 -0.0942736 3.71342
Spine1  11.4239 1.5613 -5.40968
HEad  2.5044 15.7224 -13.7367
LeftShoulder1  -3.88251e-019 9.70628e-020 -3.87848e-018
LeftArm  -22.869 51.9069 -70.6416
LeftForeArm  -0.405554 -18.1233 -2.59064
LeftHand  -1.09229 -4.16618 14.0192
RightShoulder  7.2772 10.3007 34.7642
RightArm  6.2378 -46.8597 20.6178
RightForeArm  3.3655 19.7211 -10.3493
RightHand  -0.957194 3.07851 -12.9846
LeftUpLeg  -8.72779 16.9031 -10.0552
LeftLeg  16.9325 17.3188 10.7301
LeftFoot  -8.54412 -0.21948 4.94424
LeftToes  7.37594e-011 2.64622e-011 -6.25182e-011
246
root  2.8525 39.5264 -3.36343 -3.00609 -44.4399 1.96156
RightUpLeg  -3.94779 -29.334 -3.036
RightLeg  23.657 -1.14779 -9.27358
RightFoot  -13.2032 0.0396576 1.6413
RightToes  1.74624e-010 -3.18055e-015 -2.98177e-016
Spine  1.13501 0.23007 5.12639
Spine1  10.8965 2.24539 -6.80519
HEad  2.3359 16.4226 -14.6472
LeftShoulder1  -3.88251e-019 9.70628e-020 -3.87848e-018
LeftArm  -23.7826 52.8024 -71.2443
LeftForeArm  -0.986213 -17.9933 -2.47653
LeftHand  -0.993202 -3.79395 13.3067
RightShoulder  7.22499 10.2851 34.5302
RightArm  6.81747 -46.7027 20.9546
RightForeArm  5.9716 18.9745 -9.72705
RightHand  -0.952384 3.54222 -12.2705
LeftUpLeg  -8.07482 16.4767 -9.70412
LeftLeg  16.0698 21.1039 10.3706
LeftFoot  -7.6862 -0.249981 4.85
LeftToes  7.37594e-011 2.64622e-011 -6.25182e-011
247
root  2.89509 39.6362 -3.46806 -3.10676 -48.3988 2.50388
RightUpLeg  -2.57246 -27.6256 -3.00019
RightLeg  19.9889 -1.37236 -7.69074
RightFoot  -12.8771 0.0312412 1.95779
RightToes  1.74624e-010 -3.18055e-015 -2.98177e-016
Spine  0.721537 0.749297 6.00843
Spine1  10.2006 3.00017 -7.98177
HEad  2.00099 17.5318 -15.6492
LeftShoulder1  -3.88251e-019 9.70628e-020 -3.87848e-018
LeftArm  -25.2977 53.6665 -71.7931
LeftForeArm  -0.73515 -17.2434 -2.47239
LeftHand  -0.958598 -3.98073 12.5961
RightShoulder  7.22078 10.289 34.4998
RightArm  7.11704 -46.3106 21.3596
RightForeArm  8.73393 18.4165 -9.23481
RightHand  -0.931878 3.8365 -11.6415
LeftUpLeg  -7.56307 14.5392 -9.1951
LeftLeg  15.393 26.8282 9.75391
LeftFoot  -6.74128 -0.281189 4.74077
LeftToes  7.37594e-011 2.64622e-011 -6.25182e-011
